<?xml version="1.0" encoding="utf-8"?>
<!-- Generator: Adobe Illustrator 19.2.1, SVG Export Plug-In . SVG Version: 6.00 Build 0)  -->
<svg version="1.1" id="Layer_1" xmlns="http://www.w3.org/2000/svg" xmlns:xlink="http://www.w3.org/1999/xlink" x="0px" y="0px"
	 viewBox="0 0 1200 400" style="enable-background:new 0 0 1200 400;" xml:space="preserve">
<style type="text/css">
	.st0{fill:#E6E6E6;}
	.st1{fill:#999999;}
</style>
<rect x="0" class="st0" width="1200" height="400"/>
<g>
	<path class="st1" d="M373.9,243.4v-46.3h-18v-10.9c2.5,0.1,4.9-0.1,7.3-0.6c2.3-0.4,4.5-1.2,6.3-2.3c1.9-1.1,3.5-2.6,4.7-4.4
		c1.3-1.8,2.1-4.1,2.6-6.8h11.5v71.4H373.9z"/>
	<path class="st1" d="M402.2,188c1.1-3.5,2.7-6.6,4.9-9.2c2.2-2.6,4.9-4.7,8.2-6.1c3.3-1.5,7.1-2.2,11.4-2.2c3.3,0,6.4,0.5,9.3,1.5
		c3,1,5.6,2.5,7.8,4.4c2.2,1.9,4,4.3,5.4,7c1.3,2.8,2,5.9,2,9.4c0,3.6-0.6,6.7-1.7,9.3c-1.2,2.6-2.7,4.9-4.6,6.9
		c-1.9,2-4.1,3.8-6.5,5.5c-2.4,1.6-4.8,3.2-7.3,4.8c-2.4,1.6-4.8,3.3-7.1,5.2c-2.3,1.8-4.4,4-6.1,6.4h33.8v12.5h-52.5
		c0-4.1,0.6-7.8,1.8-10.8c1.2-3.1,2.8-5.8,4.8-8.2c2-2.4,4.4-4.6,7.2-6.7c2.8-2,5.7-4.1,8.7-6.2c1.6-1.1,3.2-2.2,5-3.3
		c1.8-1.1,3.4-2.4,4.8-3.7c1.5-1.4,2.7-2.9,3.7-4.6c1-1.7,1.5-3.6,1.5-5.8c0-3.5-1-6.2-3-8.1c-2-1.9-4.6-2.9-7.7-2.9
		c-2.1,0-3.9,0.5-5.4,1.5c-1.5,1-2.6,2.3-3.5,3.9c-0.9,1.6-1.5,3.4-1.9,5.3c-0.4,1.9-0.6,3.9-0.6,5.8h-13.9
		C400.6,195.3,401.1,191.5,402.2,188z"/>
	<path class="st1" d="M457.9,189.9c1.4-4.7,3.3-8.5,5.7-11.4c2.4-2.9,5.2-4.9,8.3-6.1c3.2-1.2,6.5-1.8,10.1-1.8
		c3.6,0,7,0.6,10.2,1.8c3.2,1.2,6,3.3,8.4,6.1c2.4,2.9,4.3,6.7,5.7,11.4c1.4,4.7,2.1,10.6,2.1,17.5c0,7.1-0.7,13.1-2.1,17.9
		c-1.4,4.8-3.3,8.6-5.7,11.5c-2.4,2.9-5.2,4.9-8.4,6.1c-3.2,1.2-6.5,1.8-10.2,1.8c-3.5,0-6.9-0.6-10.1-1.8c-3.2-1.2-5.9-3.3-8.3-6.1
		c-2.4-2.9-4.3-6.7-5.7-11.5c-1.4-4.8-2.1-10.8-2.1-17.9C455.8,200.4,456.5,194.6,457.9,189.9z M470.5,214.8
		c0.1,2.9,0.6,5.7,1.3,8.4c0.7,2.7,1.9,5,3.4,6.9c1.6,1.9,3.8,2.9,6.7,2.9c3,0,5.3-1,6.9-2.9c1.6-1.9,2.8-4.2,3.5-6.9
		c0.7-2.7,1.1-5.5,1.3-8.4c0.1-2.9,0.2-5.4,0.2-7.4c0-1.2,0-2.7-0.1-4.4c0-1.7-0.2-3.5-0.4-5.4c-0.2-1.8-0.6-3.7-1-5.5
		c-0.4-1.8-1.1-3.4-2-4.8c-0.9-1.4-2-2.6-3.4-3.5c-1.4-0.9-3-1.3-5-1.3s-3.6,0.4-4.9,1.3c-1.3,0.9-2.4,2-3.3,3.5
		c-0.9,1.4-1.5,3-2,4.8c-0.5,1.8-0.8,3.6-1,5.5c-0.2,1.8-0.3,3.6-0.4,5.4c0,1.7-0.1,3.2-0.1,4.4
		C470.3,209.4,470.4,211.9,470.5,214.8z"/>
	<path class="st1" d="M514.7,189.9c1.4-4.7,3.3-8.5,5.7-11.4c2.4-2.9,5.2-4.9,8.3-6.1c3.2-1.2,6.5-1.8,10.1-1.8
		c3.6,0,7,0.6,10.2,1.8c3.2,1.2,6,3.3,8.4,6.1c2.4,2.9,4.3,6.7,5.7,11.4c1.4,4.7,2.1,10.6,2.1,17.5c0,7.1-0.7,13.1-2.1,17.9
		c-1.4,4.8-3.3,8.6-5.7,11.5c-2.4,2.9-5.2,4.9-8.4,6.1s-6.5,1.8-10.2,1.8c-3.5,0-6.9-0.6-10.1-1.8c-3.2-1.2-5.9-3.3-8.3-6.1
		c-2.4-2.9-4.3-6.7-5.7-11.5c-1.4-4.8-2.1-10.8-2.1-17.9C512.6,200.4,513.3,194.6,514.7,189.9z M527.3,214.8
		c0.1,2.9,0.6,5.7,1.3,8.4c0.7,2.7,1.9,5,3.4,6.9c1.6,1.9,3.8,2.9,6.7,2.9c3,0,5.3-1,6.9-2.9c1.6-1.9,2.8-4.2,3.5-6.9
		c0.7-2.7,1.1-5.5,1.3-8.4c0.1-2.9,0.2-5.4,0.2-7.4c0-1.2,0-2.7-0.1-4.4c0-1.7-0.2-3.5-0.4-5.4c-0.2-1.8-0.6-3.7-1-5.5
		c-0.4-1.8-1.1-3.4-2-4.8c-0.9-1.4-2-2.6-3.4-3.5c-1.4-0.9-3-1.3-5-1.3c-2,0-3.6,0.4-4.9,1.3c-1.3,0.9-2.4,2-3.3,3.5
		c-0.9,1.4-1.5,3-2,4.8c-0.5,1.8-0.8,3.6-1,5.5c-0.2,1.8-0.3,3.6-0.4,5.4c0,1.7-0.1,3.2-0.1,4.4
		C527.1,209.4,527.1,211.9,527.3,214.8z"/>
	<path class="st1" d="M597.2,190.6h16.5l9.3,13.8l9.2-13.8h16l-17.3,24.7l19.5,28.1h-16.5l-11-16.6l-11,16.6h-16.2l19-27.8
		L597.2,190.6z"/>
	<path class="st1" d="M680.3,226.9v-13.3l31-41.6h13v43h9.5v11.9h-9.5v16.5h-13.8v-16.5H680.3z M710.2,190.1l-18.5,24.8h18.8v-24.8
		H710.2z"/>
	<path class="st1" d="M739.7,189.9c1.4-4.7,3.3-8.5,5.7-11.4c2.4-2.9,5.2-4.9,8.3-6.1c3.2-1.2,6.5-1.8,10.1-1.8
		c3.6,0,7,0.6,10.2,1.8c3.2,1.2,6,3.3,8.4,6.1c2.4,2.9,4.3,6.7,5.7,11.4c1.4,4.7,2.1,10.6,2.1,17.5c0,7.1-0.7,13.1-2.1,17.9
		c-1.4,4.8-3.3,8.6-5.7,11.5c-2.4,2.9-5.2,4.9-8.4,6.1s-6.5,1.8-10.2,1.8c-3.5,0-6.9-0.6-10.1-1.8c-3.2-1.2-5.9-3.3-8.3-6.1
		c-2.4-2.9-4.3-6.7-5.7-11.5c-1.4-4.8-2.1-10.8-2.1-17.9C737.6,200.4,738.3,194.6,739.7,189.9z M752.3,214.8
		c0.1,2.9,0.6,5.7,1.3,8.4c0.7,2.7,1.9,5,3.4,6.9c1.6,1.9,3.8,2.9,6.7,2.9c3,0,5.3-1,6.9-2.9c1.6-1.9,2.8-4.2,3.5-6.9
		s1.1-5.5,1.3-8.4c0.1-2.9,0.2-5.4,0.2-7.4c0-1.2,0-2.7-0.1-4.4c0-1.7-0.2-3.5-0.4-5.4c-0.2-1.8-0.6-3.7-1-5.5
		c-0.4-1.8-1.1-3.4-2-4.8c-0.9-1.4-2-2.6-3.4-3.5c-1.4-0.9-3-1.3-5-1.3c-2,0-3.6,0.4-5,1.3c-1.3,0.9-2.4,2-3.3,3.5
		c-0.9,1.4-1.5,3-2,4.8c-0.5,1.8-0.8,3.6-1,5.5c-0.2,1.8-0.3,3.6-0.4,5.4c0,1.7-0.1,3.2-0.1,4.4
		C752.1,209.4,752.2,211.9,752.3,214.8z"/>
	<path class="st1" d="M796.4,189.9c1.4-4.7,3.3-8.5,5.7-11.4c2.4-2.9,5.2-4.9,8.3-6.1c3.2-1.2,6.5-1.8,10.1-1.8
		c3.6,0,7,0.6,10.2,1.8c3.2,1.2,6,3.3,8.4,6.1c2.4,2.9,4.3,6.7,5.7,11.4c1.4,4.7,2.1,10.6,2.1,17.5c0,7.1-0.7,13.1-2.1,17.9
		c-1.4,4.8-3.3,8.6-5.7,11.5c-2.4,2.9-5.2,4.9-8.4,6.1c-3.2,1.2-6.5,1.8-10.2,1.8c-3.5,0-6.9-0.6-10.1-1.8s-5.9-3.3-8.3-6.1
		c-2.4-2.9-4.3-6.7-5.7-11.5c-1.4-4.8-2.1-10.8-2.1-17.9C794.3,200.4,795,194.6,796.4,189.9z M809,214.8c0.1,2.9,0.6,5.7,1.3,8.4
		c0.7,2.7,1.9,5,3.4,6.9c1.6,1.9,3.8,2.9,6.7,2.9c3,0,5.3-1,6.9-2.9c1.6-1.9,2.8-4.2,3.5-6.9s1.1-5.5,1.3-8.4
		c0.1-2.9,0.2-5.4,0.2-7.4c0-1.2,0-2.7-0.1-4.4c0-1.7-0.2-3.5-0.4-5.4c-0.2-1.8-0.6-3.7-1-5.5c-0.4-1.8-1.1-3.4-2-4.8
		c-0.9-1.4-2-2.6-3.4-3.5c-1.4-0.9-3-1.3-5-1.3c-2,0-3.6,0.4-5,1.3c-1.3,0.9-2.4,2-3.3,3.5c-0.9,1.4-1.5,3-2,4.8
		c-0.5,1.8-0.8,3.6-1,5.5c-0.2,1.8-0.3,3.6-0.4,5.4c0,1.7-0.1,3.2-0.1,4.4C808.8,209.4,808.9,211.9,809,214.8z"/>
</g>
</svg>
